<?xml version="1.0" encoding="UTF-8"?>
<!DOCTYPE svg PUBLIC "-//W3C//DTD SVG 1.1//EN" "http://www.w3.org/Graphics/SVG/1.1/DTD/svg11.dtd">
<svg xmlns="http://www.w3.org/2000/svg" version="1.1" width="1218px" height="1092px" style="shape-rendering:geometricPrecision; text-rendering:geometricPrecision; image-rendering:optimizeQuality; fill-rule:evenodd; clip-rule:evenodd" xmlns:xlink="http://www.w3.org/1999/xlink">
<g><path style="opacity:1" fill="#fe9c06" d="M 579.5,11.5 C 752.474,5.61387 898.307,64.9472 1017,189.5C 1128.54,316.89 1172.54,464.89 1149,633.5C 1118.5,796.561 1033,921.394 892.5,1008C 757.355,1085.1 614.355,1104.1 463.5,1065C 302.471,1017.3 185.638,917.798 113,766.5C 63.654,654.027 53.3207,538.027 82,418.5C 120.888,275.33 203.388,165.163 329.5,88C 406.806,42.6754 490.14,17.1754 579.5,11.5 Z"/></g>
<g><path style="opacity:1" fill="#a9772d" d="M 510.5,302.5 C 422.5,302.5 334.5,302.5 246.5,302.5C 246.167,453.334 246.5,604.001 247.5,754.5C 247.833,754.5 248.167,754.5 248.5,754.5C 247.791,755.404 246.791,755.737 245.5,755.5C 245.5,604.167 245.5,452.833 245.5,301.5C 334.002,301.167 422.335,301.501 510.5,302.5 Z"/></g>
<g><path style="opacity:1" fill="#163a6d" d="M 536.5,304.5 C 578.433,307.721 614.267,324.054 644,353.5C 664.325,375.774 675.325,402.108 677,432.5C 677.5,441.494 677.666,450.494 677.5,459.5C 676.184,465.32 675.184,471.32 674.5,477.5C 595.165,514.624 519.832,559.124 448.5,611C 447.552,611.483 446.552,611.649 445.5,611.5C 445.38,608.422 444.38,605.755 442.5,603.5C 427.009,602.504 411.342,602.17 395.5,602.5C 395.5,618.5 395.5,634.5 395.5,650.5C 393.066,653.438 390.399,656.271 387.5,659C 364.574,673.617 342.241,688.95 320.5,705C 297.592,720.61 274.592,735.943 251.5,751C 250.29,752.039 249.29,753.206 248.5,754.5C 248.167,754.5 247.833,754.5 247.5,754.5C 247.5,604.167 247.5,453.833 247.5,303.5C 343.841,303.198 440.174,303.531 536.5,304.5 Z"/></g>
<g><path style="opacity:1" fill="#163a6d" d="M 834.5,302.5 C 881.833,302.5 929.167,302.5 976.5,302.5C 976.5,344.5 976.5,386.5 976.5,428.5C 934.696,422.148 892.696,420.815 850.5,424.5C 845.45,423.383 840.283,422.383 835,421.5C 834.5,381.835 834.333,342.168 834.5,302.5 Z"/></g>
<g><path style="opacity:1" fill="#254066" d="M 510.5,302.5 C 519.389,302.197 528.056,302.863 536.5,304.5C 440.174,303.531 343.841,303.198 247.5,303.5C 247.5,453.833 247.5,604.167 247.5,754.5C 246.5,604.001 246.167,453.334 246.5,302.5C 334.5,302.5 422.5,302.5 510.5,302.5 Z"/></g>
<g><path style="opacity:1" fill="#2f4363" d="M 833.5,302.5 C 833.833,302.5 834.167,302.5 834.5,302.5C 834.333,342.168 834.5,381.835 835,421.5C 840.283,422.383 845.45,423.383 850.5,424.5C 844.839,424.093 839.172,423.76 833.5,423.5C 833.5,383.167 833.5,342.833 833.5,302.5 Z"/></g>
<g><path style="opacity:1" fill="#776342" d="M 833.5,302.5 C 881.33,301.501 929.33,301.168 977.5,301.5C 977.832,344.003 977.499,386.337 976.5,428.5C 976.5,386.5 976.5,344.5 976.5,302.5C 929.167,302.5 881.833,302.5 834.5,302.5C 834.167,302.5 833.833,302.5 833.5,302.5 Z"/></g>
<g><path style="opacity:1" fill="#fe9b05" d="M 474.5,406.5 C 513.061,409.917 527.894,430.583 519,468.5C 510.422,485.389 496.588,494.722 477.5,496.5C 450.514,497.416 423.514,497.75 396.5,497.5C 396.5,467.167 396.5,436.833 396.5,406.5C 422.5,406.5 448.5,406.5 474.5,406.5 Z"/></g>
<g><path style="opacity:1" fill="#c08121" d="M 474.5,406.5 C 448.5,406.5 422.5,406.5 396.5,406.5C 396.5,436.833 396.5,467.167 396.5,497.5C 423.514,497.75 450.514,497.416 477.5,496.5C 476.081,497.451 474.415,497.784 472.5,497.5C 446.866,498.473 421.199,498.806 395.5,498.5C 395.5,467.5 395.5,436.5 395.5,405.5C 422.005,405.169 448.339,405.502 474.5,406.5 Z"/></g>
<g><path style="opacity:1" fill="#ff0300" d="M 884.5,429.5 C 920.554,428.736 956.221,431.569 991.5,438C 1010.95,442.723 1030.28,447.89 1049.5,453.5C 1050.22,457.737 1051.56,461.737 1053.5,465.5C 1053,465.833 1052.5,466.167 1052,466.5C 983.386,453.377 915.886,457.21 849.5,478C 839.26,481.269 829.093,484.769 819,488.5C 791.129,499.793 763.963,512.626 737.5,527C 704.489,546.168 672.489,566.835 641.5,589C 556.051,654.46 476.384,726.127 402.5,804C 349.497,804.833 296.497,804.667 243.5,803.5C 242.758,802.713 241.925,802.047 241,801.5C 240.207,790.131 240.54,778.798 242,767.5C 291.573,732.963 341.406,698.796 391.5,665C 398.53,657.635 405.864,650.635 413.5,644C 433.639,630.028 453.639,615.861 473.5,601.5C 530.517,562.537 589.85,527.37 651.5,496C 704.235,470.089 759.235,450.756 816.5,438C 826.956,436.888 837.289,435.221 847.5,433C 859.97,431.657 872.304,430.49 884.5,429.5 Z"/></g>
<g><path style="opacity:1" fill="#173a6d" d="M 976.5,642.5 C 974.772,648.238 974.105,654.238 974.5,660.5C 973.407,673.575 971.741,686.575 969.5,699.5C 967.926,701.102 967.259,703.102 967.5,705.5C 960.234,733.938 944.234,756.105 919.5,772C 913.293,775.603 906.96,778.936 900.5,782C 892.425,784.415 884.425,786.915 876.5,789.5C 870.191,789.99 864.191,791.323 858.5,793.5C 857.5,793.5 856.5,793.5 855.5,793.5C 831.879,795.273 808.212,795.94 784.5,795.5C 767.49,794.161 750.49,791.828 733.5,788.5C 731.485,787.076 729.152,786.41 726.5,786.5C 723.211,785.626 719.877,784.959 716.5,784.5C 716.333,745.832 716.5,707.165 717,668.5C 718.011,669.337 719.178,669.67 720.5,669.5C 745.025,676.5 770.025,678.333 795.5,675C 808.718,672.108 818.885,664.942 826,653.5C 829.236,644.748 831.402,635.748 832.5,626.5C 834.495,581.512 835.162,536.179 834.5,490.5C 877.894,475.092 922.728,466.426 969,464.5C 971.848,464.798 974.681,465.131 977.5,465.5C 977.767,524.507 977.434,583.507 976.5,642.5 Z"/></g>
<g><path style="opacity:1" fill="#bd8028" d="M 677.5,459.5 C 677.529,465.21 677.029,470.877 676,476.5C 675.617,477.056 675.117,477.389 674.5,477.5C 675.184,471.32 676.184,465.32 677.5,459.5 Z"/></g>
<g><path style="opacity:1" fill="#274166" d="M 834.5,490.5 C 835.162,536.179 834.495,581.512 832.5,626.5C 833.157,581.039 833.823,535.706 834.5,490.5 Z"/></g>
<g><path style="opacity:1" fill="#2e4363" d="M 472.5,497.5 C 472.389,498.117 472.056,498.617 471.5,499C 445.997,499.83 420.663,499.663 395.5,498.5C 421.199,498.806 446.866,498.473 472.5,497.5 Z"/></g>
<g><path style="opacity:1" fill="#ca851d" d="M 442.5,603.5 C 427.167,603.5 411.833,603.5 396.5,603.5C 396.83,619.342 396.496,635.009 395.5,650.5C 395.5,634.5 395.5,618.5 395.5,602.5C 411.342,602.17 427.009,602.504 442.5,603.5 Z"/></g>
<g><path style="opacity:1" fill="#173a6d" d="M 678.5,786.5 C 623.669,787.499 568.669,787.832 513.5,787.5C 505.098,767.456 497.598,747.122 491,726.5C 513.7,705.006 536.534,684.172 559.5,664C 561.275,662.561 563.275,661.561 565.5,661C 566.337,659.989 566.67,658.822 566.5,657.5C 580.956,646.256 595.456,634.589 610,622.5C 610.333,622.833 610.667,623.167 611,623.5C 633.274,677.978 655.774,732.312 678.5,786.5 Z"/></g>
<g><path style="opacity:1" fill="#525155" d="M 976.5,642.5 C 976.612,648.726 975.946,654.726 974.5,660.5C 974.105,654.238 974.772,648.238 976.5,642.5 Z"/></g>
<g><path style="opacity:1" fill="#695d48" d="M 720.5,669.5 C 719.178,669.67 718.011,669.337 717,668.5C 716.5,707.165 716.333,745.832 716.5,784.5C 715.501,745.67 715.168,706.67 715.5,667.5C 717.553,667.402 719.22,668.069 720.5,669.5 Z"/></g>
<g><path style="opacity:1" fill="#946e39" d="M 969.5,699.5 C 969.741,701.898 969.074,703.898 967.5,705.5C 967.259,703.102 967.926,701.102 969.5,699.5 Z"/></g>
<g><path style="opacity:1" fill="#404c5a" d="M 678.5,786.5 C 679.043,786.56 679.376,786.893 679.5,787.5C 624.001,788.831 568.668,788.831 513.5,787.5C 568.669,787.832 623.669,787.499 678.5,786.5 Z"/></g>
<g><path style="opacity:1" fill="#705f47" d="M 726.5,786.5 C 729.152,786.41 731.485,787.076 733.5,788.5C 730.848,788.59 728.515,787.924 726.5,786.5 Z"/></g>
<g><path style="opacity:1" fill="#b37b2e" d="M 876.5,789.5 C 870.871,791.89 864.871,793.223 858.5,793.5C 864.191,791.323 870.191,789.99 876.5,789.5 Z"/></g>
<g><path style="opacity:1" fill="#c88422" d="M 855.5,793.5 C 851.273,795.28 846.606,796.114 841.5,796C 822.329,796.829 803.329,796.662 784.5,795.5C 808.212,795.94 831.879,795.273 855.5,793.5 Z"/></g>
</svg>
